<mxfile host="app.diagrams.net" modified="2023-12-23T19:23:15.950Z" agent="Mozilla/5.0 (Windows NT 10.0; Win64; x64) AppleWebKit/537.36 (KHTML, like Gecko) Chrome/120.0.0.0 Safari/537.36" etag="vYN9OANDR9mVT979eMwO" version="22.1.11" type="device">
  <diagram name="Sayfa -1" id="iDoc80ltSmZfPuOE43g_">
    <mxGraphModel dx="2501" dy="746" grid="1" gridSize="10" guides="1" tooltips="1" connect="1" arrows="1" fold="1" page="1" pageScale="1" pageWidth="827" pageHeight="1169" math="0" shadow="0">
      <root>
        <mxCell id="0" />
        <mxCell id="1" parent="0" />
        <mxCell id="vhCgCJ5Xj3JtaqIhpDnn-11" style="edgeStyle=orthogonalEdgeStyle;rounded=0;orthogonalLoop=1;jettySize=auto;html=1;" edge="1" parent="1" source="vhCgCJ5Xj3JtaqIhpDnn-1" target="vhCgCJ5Xj3JtaqIhpDnn-2">
          <mxGeometry relative="1" as="geometry" />
        </mxCell>
        <mxCell id="vhCgCJ5Xj3JtaqIhpDnn-1" value="Giriş" style="ellipse;whiteSpace=wrap;html=1;" vertex="1" parent="1">
          <mxGeometry x="163" y="50" width="90" height="50" as="geometry" />
        </mxCell>
        <mxCell id="vhCgCJ5Xj3JtaqIhpDnn-2" value="sayi1, sayi2, sayi3" style="shape=parallelogram;perimeter=parallelogramPerimeter;whiteSpace=wrap;html=1;fixedSize=1;" vertex="1" parent="1">
          <mxGeometry x="147.5" y="160" width="135" height="60" as="geometry" />
        </mxCell>
        <mxCell id="vhCgCJ5Xj3JtaqIhpDnn-13" style="edgeStyle=orthogonalEdgeStyle;rounded=0;orthogonalLoop=1;jettySize=auto;html=1;entryX=0.5;entryY=0;entryDx=0;entryDy=0;" edge="1" parent="1" source="vhCgCJ5Xj3JtaqIhpDnn-4" target="vhCgCJ5Xj3JtaqIhpDnn-5">
          <mxGeometry relative="1" as="geometry" />
        </mxCell>
        <mxCell id="vhCgCJ5Xj3JtaqIhpDnn-4" value="enKucuk = sayi1&lt;br&gt;ortanca = sayi2&lt;br&gt;enBuyuk = sayi3" style="rounded=0;whiteSpace=wrap;html=1;" vertex="1" parent="1">
          <mxGeometry x="148" y="270" width="120" height="60" as="geometry" />
        </mxCell>
        <mxCell id="vhCgCJ5Xj3JtaqIhpDnn-14" style="edgeStyle=orthogonalEdgeStyle;rounded=0;orthogonalLoop=1;jettySize=auto;html=1;entryX=0.5;entryY=0;entryDx=0;entryDy=0;" edge="1" parent="1" source="vhCgCJ5Xj3JtaqIhpDnn-5" target="vhCgCJ5Xj3JtaqIhpDnn-6">
          <mxGeometry relative="1" as="geometry" />
        </mxCell>
        <mxCell id="vhCgCJ5Xj3JtaqIhpDnn-19" value="EVET" style="edgeLabel;html=1;align=center;verticalAlign=middle;resizable=0;points=[];" vertex="1" connectable="0" parent="vhCgCJ5Xj3JtaqIhpDnn-14">
          <mxGeometry x="-0.48" y="1" relative="1" as="geometry">
            <mxPoint as="offset" />
          </mxGeometry>
        </mxCell>
        <mxCell id="vhCgCJ5Xj3JtaqIhpDnn-5" value="sayi1 &amp;gt; sayi2" style="rhombus;whiteSpace=wrap;html=1;" vertex="1" parent="1">
          <mxGeometry x="132" y="380" width="152" height="80" as="geometry" />
        </mxCell>
        <mxCell id="vhCgCJ5Xj3JtaqIhpDnn-15" style="edgeStyle=orthogonalEdgeStyle;rounded=0;orthogonalLoop=1;jettySize=auto;html=1;entryX=0.5;entryY=0;entryDx=0;entryDy=0;" edge="1" parent="1" source="vhCgCJ5Xj3JtaqIhpDnn-6" target="vhCgCJ5Xj3JtaqIhpDnn-7">
          <mxGeometry relative="1" as="geometry" />
        </mxCell>
        <mxCell id="vhCgCJ5Xj3JtaqIhpDnn-6" value="enKucuk = sayi2&lt;br&gt;ortanca = sayi1" style="rounded=0;whiteSpace=wrap;html=1;" vertex="1" parent="1">
          <mxGeometry x="148" y="510" width="120" height="60" as="geometry" />
        </mxCell>
        <mxCell id="vhCgCJ5Xj3JtaqIhpDnn-16" style="edgeStyle=orthogonalEdgeStyle;rounded=0;orthogonalLoop=1;jettySize=auto;html=1;entryX=0.5;entryY=0;entryDx=0;entryDy=0;" edge="1" parent="1" source="vhCgCJ5Xj3JtaqIhpDnn-7" target="vhCgCJ5Xj3JtaqIhpDnn-8">
          <mxGeometry relative="1" as="geometry" />
        </mxCell>
        <mxCell id="vhCgCJ5Xj3JtaqIhpDnn-22" value="EVET" style="edgeLabel;html=1;align=center;verticalAlign=middle;resizable=0;points=[];" vertex="1" connectable="0" parent="vhCgCJ5Xj3JtaqIhpDnn-16">
          <mxGeometry x="-0.1" relative="1" as="geometry">
            <mxPoint as="offset" />
          </mxGeometry>
        </mxCell>
        <mxCell id="vhCgCJ5Xj3JtaqIhpDnn-7" value="ortanca &amp;gt; sayi3&amp;nbsp;" style="rhombus;whiteSpace=wrap;html=1;" vertex="1" parent="1">
          <mxGeometry x="132" y="620" width="160" height="80" as="geometry" />
        </mxCell>
        <mxCell id="vhCgCJ5Xj3JtaqIhpDnn-17" style="edgeStyle=orthogonalEdgeStyle;rounded=0;orthogonalLoop=1;jettySize=auto;html=1;entryX=0.5;entryY=0;entryDx=0;entryDy=0;" edge="1" parent="1" source="vhCgCJ5Xj3JtaqIhpDnn-8" target="vhCgCJ5Xj3JtaqIhpDnn-9">
          <mxGeometry relative="1" as="geometry" />
        </mxCell>
        <mxCell id="vhCgCJ5Xj3JtaqIhpDnn-8" value="enKucuk = sayi2&lt;br&gt;ortanca = sayi3&lt;br&gt;enBuyuk = sayi1" style="rounded=0;whiteSpace=wrap;html=1;" vertex="1" parent="1">
          <mxGeometry x="152" y="760" width="120" height="60" as="geometry" />
        </mxCell>
        <mxCell id="vhCgCJ5Xj3JtaqIhpDnn-9" value="ortanca" style="shape=document;whiteSpace=wrap;html=1;boundedLbl=1;" vertex="1" parent="1">
          <mxGeometry x="155" y="870" width="120" height="80" as="geometry" />
        </mxCell>
        <mxCell id="vhCgCJ5Xj3JtaqIhpDnn-10" value="Bitiş" style="ellipse;whiteSpace=wrap;html=1;" vertex="1" parent="1">
          <mxGeometry x="163" y="990" width="90" height="50" as="geometry" />
        </mxCell>
        <mxCell id="vhCgCJ5Xj3JtaqIhpDnn-12" style="edgeStyle=orthogonalEdgeStyle;rounded=0;orthogonalLoop=1;jettySize=auto;html=1;entryX=0.558;entryY=0.017;entryDx=0;entryDy=0;entryPerimeter=0;" edge="1" parent="1" source="vhCgCJ5Xj3JtaqIhpDnn-2" target="vhCgCJ5Xj3JtaqIhpDnn-4">
          <mxGeometry relative="1" as="geometry" />
        </mxCell>
        <mxCell id="vhCgCJ5Xj3JtaqIhpDnn-18" style="edgeStyle=orthogonalEdgeStyle;rounded=0;orthogonalLoop=1;jettySize=auto;html=1;entryX=0.578;entryY=0;entryDx=0;entryDy=0;entryPerimeter=0;" edge="1" parent="1" source="vhCgCJ5Xj3JtaqIhpDnn-9" target="vhCgCJ5Xj3JtaqIhpDnn-10">
          <mxGeometry relative="1" as="geometry" />
        </mxCell>
        <mxCell id="vhCgCJ5Xj3JtaqIhpDnn-20" value="" style="endArrow=classic;html=1;rounded=0;exitX=0;exitY=0.5;exitDx=0;exitDy=0;" edge="1" parent="1" target="vhCgCJ5Xj3JtaqIhpDnn-7">
          <mxGeometry width="50" height="50" relative="1" as="geometry">
            <mxPoint x="130" y="420" as="sourcePoint" />
            <mxPoint x="40" y="500" as="targetPoint" />
            <Array as="points">
              <mxPoint y="510" />
            </Array>
          </mxGeometry>
        </mxCell>
        <mxCell id="vhCgCJ5Xj3JtaqIhpDnn-21" value="HAYIR" style="edgeLabel;html=1;align=center;verticalAlign=middle;resizable=0;points=[];" vertex="1" connectable="0" parent="vhCgCJ5Xj3JtaqIhpDnn-20">
          <mxGeometry x="-0.8237" y="-4" relative="1" as="geometry">
            <mxPoint x="1" as="offset" />
          </mxGeometry>
        </mxCell>
        <mxCell id="vhCgCJ5Xj3JtaqIhpDnn-23" value="" style="endArrow=classic;html=1;rounded=0;exitX=0;exitY=0.5;exitDx=0;exitDy=0;entryX=0;entryY=0.25;entryDx=0;entryDy=0;" edge="1" parent="1" source="vhCgCJ5Xj3JtaqIhpDnn-7" target="vhCgCJ5Xj3JtaqIhpDnn-9">
          <mxGeometry width="50" height="50" relative="1" as="geometry">
            <mxPoint x="100" y="690" as="sourcePoint" />
            <mxPoint x="50" y="740" as="targetPoint" />
            <Array as="points">
              <mxPoint x="20" y="750" />
            </Array>
          </mxGeometry>
        </mxCell>
        <mxCell id="vhCgCJ5Xj3JtaqIhpDnn-24" value="HAYIR" style="edgeLabel;html=1;align=center;verticalAlign=middle;resizable=0;points=[];" vertex="1" connectable="0" parent="vhCgCJ5Xj3JtaqIhpDnn-23">
          <mxGeometry x="-0.7487" y="2" relative="1" as="geometry">
            <mxPoint x="-1" as="offset" />
          </mxGeometry>
        </mxCell>
      </root>
    </mxGraphModel>
  </diagram>
</mxfile>
